<svg xmlns="http://www.w3.org/2000/svg" xmlns:xlink="http://www.w3.org/1999/xlink" width="500" zoomAndPan="magnify" viewBox="0 0 375 374.999991" height="500" preserveAspectRatio="xMidYMid meet" version="1.0"><defs><g/><clipPath id="7072208e03"><path d="M 167 124 L 207 124 L 207 178 L 167 178 Z M 167 124 " clip-rule="nonzero"/></clipPath><clipPath id="5ef81a308a"><path d="M 194.753906 124.605469 L 206.828125 131.890625 L 179.539062 177.109375 L 167.464844 169.820312 Z M 194.753906 124.605469 " clip-rule="nonzero"/></clipPath><clipPath id="0bb4d78e0c"><path d="M 0.28125 0.558594 L 39.878906 0.558594 L 39.878906 53.121094 L 0.28125 53.121094 Z M 0.28125 0.558594 " clip-rule="nonzero"/></clipPath><clipPath id="166645239a"><path d="M 27.753906 0.605469 L 39.828125 7.890625 L 12.539062 53.109375 L 0.464844 45.820312 Z M 27.753906 0.605469 " clip-rule="nonzero"/></clipPath><clipPath id="70564ca239"><rect x="0" width="40" y="0" height="54"/></clipPath><clipPath id="f17a0c3315"><path d="M 168 131 L 196 131 L 196 159 L 168 159 Z M 168 131 " clip-rule="nonzero"/></clipPath><clipPath id="8c1018e563"><path d="M 178.839844 131.804688 L 195.296875 141.738281 L 185.175781 158.5 L 168.722656 148.570312 Z M 178.839844 131.804688 " clip-rule="nonzero"/></clipPath><clipPath id="58d907a21d"><path d="M 0.71875 0.761719 L 27.359375 0.761719 L 27.359375 27.640625 L 0.71875 27.640625 Z M 0.71875 0.761719 " clip-rule="nonzero"/></clipPath><clipPath id="5ab77a8f75"><path d="M 10.839844 0.804688 L 27.296875 10.738281 L 17.175781 27.5 L 0.722656 17.570312 Z M 10.839844 0.804688 " clip-rule="nonzero"/></clipPath><clipPath id="f0f0bd9cfd"><rect x="0" width="28" y="0" height="28"/></clipPath><clipPath id="055cca4019"><path d="M 187 133 L 214 133 L 214 159 L 187 159 Z M 187 133 " clip-rule="nonzero"/></clipPath><clipPath id="78c6ab2c56"><path d="M 197.007812 133.59375 L 213.460938 143.527344 L 204.421875 158.5 L 187.96875 148.570312 Z M 197.007812 133.59375 " clip-rule="nonzero"/></clipPath><clipPath id="097e607800"><path d="M 0.921875 0.441406 L 26.601562 0.441406 L 26.601562 25.640625 L 0.921875 25.640625 Z M 0.921875 0.441406 " clip-rule="nonzero"/></clipPath><clipPath id="fe0b8b23fe"><path d="M 10.007812 0.59375 L 26.460938 10.527344 L 17.421875 25.5 L 0.96875 15.570312 Z M 10.007812 0.59375 " clip-rule="nonzero"/></clipPath><clipPath id="f2edd0b9dd"><rect x="0" width="27" y="0" height="26"/></clipPath></defs><g fill="#000000" fill-opacity="1"><g transform="translate(97.433846, 217.83331)"><g><path d="M 7.5625 0.109375 C 6.3125 0.109375 5.175781 -0.164062 4.15625 -0.71875 C 3.144531 -1.28125 2.351562 -2.046875 1.78125 -3.015625 C 1.21875 -3.992188 0.9375 -5.085938 0.9375 -6.296875 C 0.9375 -7.515625 1.21875 -8.609375 1.78125 -9.578125 C 2.351562 -10.546875 3.144531 -11.304688 4.15625 -11.859375 C 5.175781 -12.421875 6.3125 -12.703125 7.5625 -12.703125 C 8.8125 -12.703125 9.9375 -12.425781 10.9375 -11.875 C 11.9375 -11.320312 12.722656 -10.554688 13.296875 -9.578125 C 13.878906 -8.609375 14.171875 -7.515625 14.171875 -6.296875 C 14.171875 -5.085938 13.878906 -3.992188 13.296875 -3.015625 C 12.722656 -2.035156 11.9375 -1.269531 10.9375 -0.71875 C 9.9375 -0.164062 8.8125 0.109375 7.5625 0.109375 Z M 7.5625 -1.078125 C 8.550781 -1.078125 9.445312 -1.300781 10.25 -1.75 C 11.0625 -2.207031 11.691406 -2.832031 12.140625 -3.625 C 12.597656 -4.425781 12.828125 -5.316406 12.828125 -6.296875 C 12.828125 -7.285156 12.597656 -8.175781 12.140625 -8.96875 C 11.691406 -9.769531 11.0625 -10.394531 10.25 -10.84375 C 9.445312 -11.289062 8.550781 -11.515625 7.5625 -11.515625 C 6.5625 -11.515625 5.65625 -11.289062 4.84375 -10.84375 C 4.039062 -10.394531 3.40625 -9.769531 2.9375 -8.96875 C 2.476562 -8.175781 2.25 -7.285156 2.25 -6.296875 C 2.25 -5.316406 2.476562 -4.425781 2.9375 -3.625 C 3.40625 -2.832031 4.039062 -2.207031 4.84375 -1.75 C 5.65625 -1.300781 6.5625 -1.078125 7.5625 -1.078125 Z M 7.5625 -1.078125 "/></g></g></g><g fill="#000000" fill-opacity="1"><g transform="translate(117.926024, 217.83331)"><g><path d="M 2.046875 -12.59375 L 3.390625 -12.59375 L 3.390625 -1.15625 L 10.4375 -1.15625 L 10.4375 0 L 2.046875 0 Z M 2.046875 -12.59375 "/></g></g></g><g fill="#000000" fill-opacity="1"><g transform="translate(133.921121, 217.83331)"><g><path d="M 3.390625 -11.453125 L 3.390625 -6.5 L 9.90625 -6.5 L 9.90625 -5.34375 L 3.390625 -5.34375 L 3.390625 0 L 2.046875 0 L 2.046875 -12.59375 L 10.6875 -12.59375 L 10.6875 -11.453125 Z M 3.390625 -11.453125 "/></g></g></g><g fill="#000000" fill-opacity="1"><g transform="translate(150.707703, 217.83331)"><g><path d="M 9.953125 -3.359375 L 2.9375 -3.359375 L 1.421875 0 L 0.03125 0 L 5.796875 -12.59375 L 7.109375 -12.59375 L 12.875 0 L 11.46875 0 Z M 9.46875 -4.453125 L 6.4375 -11.21875 L 3.421875 -4.453125 Z M 9.46875 -4.453125 "/></g></g></g><g fill="#000000" fill-opacity="1"><g transform="translate(169.005306, 217.83331)"><g><path d="M 4.5 -11.453125 L 0.078125 -11.453125 L 0.078125 -12.59375 L 10.265625 -12.59375 L 10.265625 -11.453125 L 5.828125 -11.453125 L 5.828125 0 L 4.5 0 Z M 4.5 -11.453125 "/></g></g></g><g fill="#000000" fill-opacity="1"><g transform="translate(184.730574, 217.83331)"><g><path d="M 7.5625 0.109375 C 6.3125 0.109375 5.175781 -0.164062 4.15625 -0.71875 C 3.144531 -1.28125 2.351562 -2.046875 1.78125 -3.015625 C 1.21875 -3.992188 0.9375 -5.085938 0.9375 -6.296875 C 0.9375 -7.515625 1.21875 -8.609375 1.78125 -9.578125 C 2.351562 -10.546875 3.144531 -11.304688 4.15625 -11.859375 C 5.175781 -12.421875 6.3125 -12.703125 7.5625 -12.703125 C 8.8125 -12.703125 9.9375 -12.425781 10.9375 -11.875 C 11.9375 -11.320312 12.722656 -10.554688 13.296875 -9.578125 C 13.878906 -8.609375 14.171875 -7.515625 14.171875 -6.296875 C 14.171875 -5.085938 13.878906 -3.992188 13.296875 -3.015625 C 12.722656 -2.035156 11.9375 -1.269531 10.9375 -0.71875 C 9.9375 -0.164062 8.8125 0.109375 7.5625 0.109375 Z M 7.5625 -1.078125 C 8.550781 -1.078125 9.445312 -1.300781 10.25 -1.75 C 11.0625 -2.207031 11.691406 -2.832031 12.140625 -3.625 C 12.597656 -4.425781 12.828125 -5.316406 12.828125 -6.296875 C 12.828125 -7.285156 12.597656 -8.175781 12.140625 -8.96875 C 11.691406 -9.769531 11.0625 -10.394531 10.25 -10.84375 C 9.445312 -11.289062 8.550781 -11.515625 7.5625 -11.515625 C 6.5625 -11.515625 5.65625 -11.289062 4.84375 -10.84375 C 4.039062 -10.394531 3.40625 -9.769531 2.9375 -8.96875 C 2.476562 -8.175781 2.25 -7.285156 2.25 -6.296875 C 2.25 -5.316406 2.476562 -4.425781 2.9375 -3.625 C 3.40625 -2.832031 4.039062 -2.207031 4.84375 -1.75 C 5.65625 -1.300781 6.5625 -1.078125 7.5625 -1.078125 Z M 7.5625 -1.078125 "/></g></g></g><g fill="#000000" fill-opacity="1"><g transform="translate(205.222752, 217.83331)"><g/></g></g><g fill="#000000" fill-opacity="1"><g transform="translate(215.335667, 217.83331)"><g><path d="M 12.578125 -12.59375 L 12.578125 0 L 11.265625 0 L 11.265625 -5.8125 L 3.390625 -5.8125 L 3.390625 0 L 2.046875 0 L 2.046875 -12.59375 L 3.390625 -12.59375 L 3.390625 -6.984375 L 11.265625 -6.984375 L 11.265625 -12.59375 Z M 12.578125 -12.59375 "/></g></g></g><g fill="#000000" fill-opacity="1"><g transform="translate(235.360148, 217.83331)"><g><path d="M 7.5625 0.109375 C 6.3125 0.109375 5.175781 -0.164062 4.15625 -0.71875 C 3.144531 -1.28125 2.351562 -2.046875 1.78125 -3.015625 C 1.21875 -3.992188 0.9375 -5.085938 0.9375 -6.296875 C 0.9375 -7.515625 1.21875 -8.609375 1.78125 -9.578125 C 2.351562 -10.546875 3.144531 -11.304688 4.15625 -11.859375 C 5.175781 -12.421875 6.3125 -12.703125 7.5625 -12.703125 C 8.8125 -12.703125 9.9375 -12.425781 10.9375 -11.875 C 11.9375 -11.320312 12.722656 -10.554688 13.296875 -9.578125 C 13.878906 -8.609375 14.171875 -7.515625 14.171875 -6.296875 C 14.171875 -5.085938 13.878906 -3.992188 13.296875 -3.015625 C 12.722656 -2.035156 11.9375 -1.269531 10.9375 -0.71875 C 9.9375 -0.164062 8.8125 0.109375 7.5625 0.109375 Z M 7.5625 -1.078125 C 8.550781 -1.078125 9.445312 -1.300781 10.25 -1.75 C 11.0625 -2.207031 11.691406 -2.832031 12.140625 -3.625 C 12.597656 -4.425781 12.828125 -5.316406 12.828125 -6.296875 C 12.828125 -7.285156 12.597656 -8.175781 12.140625 -8.96875 C 11.691406 -9.769531 11.0625 -10.394531 10.25 -10.84375 C 9.445312 -11.289062 8.550781 -11.515625 7.5625 -11.515625 C 6.5625 -11.515625 5.65625 -11.289062 4.84375 -10.84375 C 4.039062 -10.394531 3.40625 -9.769531 2.9375 -8.96875 C 2.476562 -8.175781 2.25 -7.285156 2.25 -6.296875 C 2.25 -5.316406 2.476562 -4.425781 2.9375 -3.625 C 3.40625 -2.832031 4.039062 -2.207031 4.84375 -1.75 C 5.65625 -1.300781 6.5625 -1.078125 7.5625 -1.078125 Z M 7.5625 -1.078125 "/></g></g></g><g fill="#000000" fill-opacity="1"><g transform="translate(255.852326, 217.83331)"><g><path d="M 7.125 0.109375 C 5.5 0.109375 4.226562 -0.359375 3.3125 -1.296875 C 2.394531 -2.234375 1.9375 -3.59375 1.9375 -5.375 L 1.9375 -12.59375 L 3.28125 -12.59375 L 3.28125 -5.4375 C 3.28125 -3.96875 3.609375 -2.875 4.265625 -2.15625 C 4.921875 -1.4375 5.875 -1.078125 7.125 -1.078125 C 8.382812 -1.078125 9.34375 -1.4375 10 -2.15625 C 10.664062 -2.875 11 -3.96875 11 -5.4375 L 11 -12.59375 L 12.296875 -12.59375 L 12.296875 -5.375 C 12.296875 -3.59375 11.84375 -2.234375 10.9375 -1.296875 C 10.03125 -0.359375 8.757812 0.109375 7.125 0.109375 Z M 7.125 0.109375 "/></g></g></g><g fill="#000000" fill-opacity="1"><g transform="translate(275.49905, 217.83331)"><g><path d="M 5.53125 0.109375 C 4.59375 0.109375 3.691406 -0.0390625 2.828125 -0.34375 C 1.972656 -0.644531 1.3125 -1.039062 0.84375 -1.53125 L 1.375 -2.5625 C 1.820312 -2.101562 2.421875 -1.734375 3.171875 -1.453125 C 3.929688 -1.171875 4.71875 -1.03125 5.53125 -1.03125 C 6.65625 -1.03125 7.5 -1.234375 8.0625 -1.640625 C 8.625 -2.054688 8.90625 -2.597656 8.90625 -3.265625 C 8.90625 -3.765625 8.75 -4.160156 8.4375 -4.453125 C 8.132812 -4.753906 7.757812 -4.988281 7.3125 -5.15625 C 6.875 -5.320312 6.257812 -5.5 5.46875 -5.6875 C 4.519531 -5.925781 3.765625 -6.15625 3.203125 -6.375 C 2.640625 -6.601562 2.15625 -6.941406 1.75 -7.390625 C 1.351562 -7.847656 1.15625 -8.46875 1.15625 -9.25 C 1.15625 -9.882812 1.320312 -10.460938 1.65625 -10.984375 C 1.988281 -11.503906 2.503906 -11.921875 3.203125 -12.234375 C 3.898438 -12.546875 4.765625 -12.703125 5.796875 -12.703125 C 6.515625 -12.703125 7.21875 -12.601562 7.90625 -12.40625 C 8.601562 -12.207031 9.203125 -11.9375 9.703125 -11.59375 L 9.25 -10.53125 C 8.71875 -10.875 8.148438 -11.132812 7.546875 -11.3125 C 6.953125 -11.488281 6.367188 -11.578125 5.796875 -11.578125 C 4.691406 -11.578125 3.859375 -11.363281 3.296875 -10.9375 C 2.742188 -10.507812 2.46875 -9.957031 2.46875 -9.28125 C 2.46875 -8.78125 2.617188 -8.375 2.921875 -8.0625 C 3.234375 -7.757812 3.617188 -7.523438 4.078125 -7.359375 C 4.535156 -7.203125 5.15625 -7.03125 5.9375 -6.84375 C 6.863281 -6.613281 7.609375 -6.382812 8.171875 -6.15625 C 8.742188 -5.9375 9.226562 -5.601562 9.625 -5.15625 C 10.019531 -4.707031 10.21875 -4.097656 10.21875 -3.328125 C 10.21875 -2.691406 10.046875 -2.113281 9.703125 -1.59375 C 9.367188 -1.070312 8.847656 -0.65625 8.140625 -0.34375 C 7.429688 -0.0390625 6.5625 0.109375 5.53125 0.109375 Z M 5.53125 0.109375 "/></g></g></g><g fill="#000000" fill-opacity="1"><g transform="translate(291.961832, 217.83331)"><g><path d="M 10.96875 -1.15625 L 10.96875 0 L 2.046875 0 L 2.046875 -12.59375 L 10.6875 -12.59375 L 10.6875 -11.453125 L 3.390625 -11.453125 L 3.390625 -6.96875 L 9.90625 -6.96875 L 9.90625 -5.828125 L 3.390625 -5.828125 L 3.390625 -1.15625 Z M 10.96875 -1.15625 "/></g></g></g><g fill="#000000" fill-opacity="1"><g transform="translate(137.944477, 164.785712)"><g><path d="M 29.40625 0.96875 C 24.425781 0.96875 19.992188 -0.195312 16.109375 -2.53125 C 12.222656 -4.863281 9.222656 -8.023438 7.109375 -12.015625 C 4.992188 -16.003906 3.9375 -20.359375 3.9375 -25.078125 C 3.9375 -30.585938 5.328125 -35.3125 8.109375 -39.25 C 10.898438 -43.1875 14.476562 -46.144531 18.84375 -48.125 C 23.207031 -50.113281 27.664062 -51.109375 32.21875 -51.109375 C 37.3125 -51.109375 41.785156 -49.914062 45.640625 -47.53125 C 49.503906 -45.144531 52.46875 -41.992188 54.53125 -38.078125 C 56.59375 -34.171875 57.625 -30.023438 57.625 -25.640625 C 57.625 -20.765625 56.335938 -16.289062 53.765625 -12.21875 C 51.191406 -8.144531 47.75 -4.925781 43.4375 -2.5625 C 39.125 -0.207031 34.445312 0.96875 29.40625 0.96875 Z M 32.21875 -0.71875 C 35.863281 -0.71875 39.144531 -1.601562 42.0625 -3.375 C 44.988281 -5.144531 47.296875 -7.742188 48.984375 -11.171875 C 50.671875 -14.597656 51.515625 -18.671875 51.515625 -23.390625 C 51.515625 -28.421875 50.578125 -32.890625 48.703125 -36.796875 C 46.828125 -40.710938 44.1875 -43.769531 40.78125 -45.96875 C 37.375 -48.164062 33.394531 -49.265625 28.84375 -49.265625 C 22.957031 -49.265625 18.351562 -47.359375 15.03125 -43.546875 C 11.707031 -39.742188 10.046875 -34.523438 10.046875 -27.890625 C 10.046875 -22.847656 10.984375 -18.25 12.859375 -14.09375 C 14.734375 -9.945312 17.359375 -6.679688 20.734375 -4.296875 C 24.109375 -1.910156 27.9375 -0.71875 32.21875 -0.71875 Z M 32.21875 -0.71875 "/></g></g></g><g fill="#000000" fill-opacity="1"><g transform="translate(176.13304, 189.494028)"><g><path d="M 58.015625 -0.96875 C 58.179688 -0.96875 58.265625 -0.804688 58.265625 -0.484375 C 58.265625 -0.160156 58.179688 0 58.015625 0 C 56.359375 0 55.046875 -0.0234375 54.078125 -0.078125 L 48.53125 -0.15625 L 42.59375 -0.078125 C 41.675781 -0.0234375 40.414062 0 38.8125 0 C 38.65625 0 38.578125 -0.160156 38.578125 -0.484375 C 38.578125 -0.804688 38.65625 -0.96875 38.8125 -0.96875 C 40.90625 -0.96875 42.429688 -1.097656 43.390625 -1.359375 C 44.359375 -1.628906 45.015625 -2.148438 45.359375 -2.921875 C 45.710938 -3.703125 45.890625 -4.898438 45.890625 -6.515625 L 45.890625 -25.3125 L 15.03125 -25.3125 L 15.03125 -6.515625 C 15.03125 -4.898438 15.203125 -3.703125 15.546875 -2.921875 C 15.898438 -2.148438 16.554688 -1.628906 17.515625 -1.359375 C 18.484375 -1.097656 20.007812 -0.96875 22.09375 -0.96875 C 22.207031 -0.96875 22.265625 -0.804688 22.265625 -0.484375 C 22.265625 -0.160156 22.207031 0 22.09375 0 C 20.4375 0 19.125 -0.0234375 18.15625 -0.078125 L 12.375 -0.15625 L 6.828125 -0.078125 C 5.867188 -0.0234375 4.53125 0 2.8125 0 C 2.707031 0 2.65625 -0.160156 2.65625 -0.484375 C 2.65625 -0.804688 2.707031 -0.96875 2.8125 -0.96875 C 4.84375 -0.96875 6.351562 -1.097656 7.34375 -1.359375 C 8.34375 -1.628906 9.015625 -2.148438 9.359375 -2.921875 C 9.710938 -3.703125 9.890625 -4.898438 9.890625 -6.515625 L 9.890625 -43.71875 C 9.890625 -45.320312 9.710938 -46.5 9.359375 -47.25 C 9.015625 -48 8.359375 -48.519531 7.390625 -48.8125 C 6.429688 -49.113281 4.929688 -49.265625 2.890625 -49.265625 C 2.785156 -49.265625 2.734375 -49.421875 2.734375 -49.734375 C 2.734375 -50.054688 2.785156 -50.21875 2.890625 -50.21875 L 6.984375 -50.140625 C 9.234375 -50.035156 11.03125 -49.984375 12.375 -49.984375 C 13.925781 -49.984375 15.878906 -50.035156 18.234375 -50.140625 L 22.09375 -50.21875 C 22.207031 -50.21875 22.265625 -50.054688 22.265625 -49.734375 C 22.265625 -49.421875 22.207031 -49.265625 22.09375 -49.265625 C 20.0625 -49.265625 18.550781 -49.101562 17.5625 -48.78125 C 16.570312 -48.457031 15.898438 -47.90625 15.546875 -47.125 C 15.203125 -46.351562 15.03125 -45.164062 15.03125 -43.5625 L 15.03125 -27 L 45.890625 -27 L 45.890625 -43.5625 C 45.890625 -45.164062 45.710938 -46.351562 45.359375 -47.125 C 45.015625 -47.90625 44.359375 -48.457031 43.390625 -48.78125 C 42.429688 -49.101562 40.90625 -49.265625 38.8125 -49.265625 C 38.65625 -49.265625 38.578125 -49.421875 38.578125 -49.734375 C 38.578125 -50.054688 38.65625 -50.21875 38.8125 -50.21875 L 42.59375 -50.140625 C 44.945312 -50.035156 46.925781 -49.984375 48.53125 -49.984375 C 49.976562 -49.984375 51.828125 -50.035156 54.078125 -50.140625 L 58.015625 -50.21875 C 58.179688 -50.21875 58.265625 -50.054688 58.265625 -49.734375 C 58.265625 -49.421875 58.179688 -49.265625 58.015625 -49.265625 C 55.984375 -49.265625 54.484375 -49.113281 53.515625 -48.8125 C 52.554688 -48.519531 51.898438 -48 51.546875 -47.25 C 51.203125 -46.5 51.03125 -45.320312 51.03125 -43.71875 L 51.03125 -6.515625 C 51.03125 -4.898438 51.203125 -3.703125 51.546875 -2.921875 C 51.898438 -2.148438 52.554688 -1.628906 53.515625 -1.359375 C 54.484375 -1.097656 55.984375 -0.96875 58.015625 -0.96875 Z M 58.015625 -0.96875 "/></g></g></g><g clip-path="url(#7072208e03)"><g clip-path="url(#5ef81a308a)"><g transform="matrix(1, 0, 0, 1, 167, 124)"><g clip-path="url(#70564ca239)"><g clip-path="url(#0bb4d78e0c)"><g clip-path="url(#166645239a)"><path fill="#ffffff" d="M 27.753906 0.605469 L 39.828125 7.890625 L 12.527344 53.128906 L 0.453125 45.839844 Z M 27.753906 0.605469 " fill-opacity="1" fill-rule="nonzero"/></g></g></g></g></g></g><g clip-path="url(#f17a0c3315)"><g clip-path="url(#8c1018e563)"><g transform="matrix(1, 0, 0, 1, 168, 131)"><g clip-path="url(#f0f0bd9cfd)"><g clip-path="url(#58d907a21d)"><g clip-path="url(#5ab77a8f75)"><path fill="#ffffff" d="M 10.839844 0.804688 L 27.296875 10.738281 L 17.171875 27.511719 L 0.714844 17.582031 Z M 10.839844 0.804688 " fill-opacity="1" fill-rule="nonzero"/></g></g></g></g></g></g><g clip-path="url(#055cca4019)"><g clip-path="url(#78c6ab2c56)"><g transform="matrix(1, 0, 0, 1, 187, 133)"><g clip-path="url(#f2edd0b9dd)"><g clip-path="url(#097e607800)"><g clip-path="url(#fe0b8b23fe)"><path fill="#ffffff" d="M 10.007812 0.59375 L 26.445312 10.515625 L 17.40625 25.492188 L 0.96875 15.570312 Z M 10.007812 0.59375 " fill-opacity="1" fill-rule="nonzero"/></g></g></g></g></g></g><path stroke-linecap="butt" transform="matrix(0.431053, -0.613753, 0.613753, 0.431053, 162.46394, 183.096742)" fill="none" stroke-linejoin="miter" d="M 0.000822678 1.000125 L 116.884887 0.999427 " stroke="#3d3b3a" stroke-width="2" stroke-opacity="1" stroke-miterlimit="4"/><g fill="#000000" fill-opacity="1"><g transform="translate(110.363533, 234.682573)"><g><path d="M 1.578125 0 C 1.554688 0 1.546875 -0.0234375 1.546875 -0.078125 C 1.546875 -0.140625 1.554688 -0.171875 1.578125 -0.171875 C 1.921875 -0.171875 2.179688 -0.191406 2.359375 -0.234375 C 2.535156 -0.285156 2.664062 -0.378906 2.75 -0.515625 C 2.832031 -0.648438 2.898438 -0.859375 2.953125 -1.140625 L 4.09375 -7.609375 C 4.125 -7.835938 4.140625 -7.976562 4.140625 -8.03125 C 4.140625 -8.1875 4.101562 -8.289062 4.03125 -8.34375 C 3.957031 -8.394531 3.832031 -8.421875 3.65625 -8.421875 L 3.484375 -8.421875 C 3.191406 -8.421875 2.882812 -8.320312 2.5625 -8.125 C 2.25 -7.925781 1.96875 -7.660156 1.71875 -7.328125 C 1.46875 -6.992188 1.285156 -6.632812 1.171875 -6.25 C 1.160156 -6.21875 1.128906 -6.207031 1.078125 -6.21875 C 1.035156 -6.226562 1.015625 -6.242188 1.015625 -6.265625 C 1.097656 -6.535156 1.210938 -6.984375 1.359375 -7.609375 C 1.503906 -8.234375 1.613281 -8.71875 1.6875 -9.0625 C 1.6875 -9.082031 1.710938 -9.09375 1.765625 -9.09375 C 1.828125 -9.09375 1.851562 -9.078125 1.84375 -9.046875 C 1.820312 -8.847656 2.003906 -8.75 2.390625 -8.75 C 3.085938 -8.71875 3.941406 -8.703125 4.953125 -8.703125 C 5.429688 -8.703125 5.957031 -8.710938 6.53125 -8.734375 L 7.421875 -8.75 C 7.703125 -8.75 7.910156 -8.769531 8.046875 -8.8125 C 8.191406 -8.863281 8.289062 -8.957031 8.34375 -9.09375 C 8.363281 -9.125 8.394531 -9.132812 8.4375 -9.125 C 8.488281 -9.125 8.507812 -9.109375 8.5 -9.078125 C 8.414062 -8.773438 8.300781 -8.289062 8.15625 -7.625 C 8.007812 -6.957031 7.921875 -6.503906 7.890625 -6.265625 C 7.878906 -6.234375 7.847656 -6.21875 7.796875 -6.21875 C 7.742188 -6.226562 7.722656 -6.25 7.734375 -6.28125 C 7.753906 -6.445312 7.765625 -6.597656 7.765625 -6.734375 C 7.765625 -7.222656 7.628906 -7.625 7.359375 -7.9375 C 7.085938 -8.257812 6.738281 -8.421875 6.3125 -8.421875 L 6.15625 -8.421875 C 5.914062 -8.421875 5.753906 -8.367188 5.671875 -8.265625 C 5.597656 -8.160156 5.53125 -7.9375 5.46875 -7.59375 L 4.34375 -1.140625 C 4.300781 -0.910156 4.28125 -0.765625 4.28125 -0.703125 C 4.28125 -0.484375 4.359375 -0.335938 4.515625 -0.265625 C 4.671875 -0.203125 4.957031 -0.171875 5.375 -0.171875 C 5.394531 -0.171875 5.40625 -0.140625 5.40625 -0.078125 C 5.40625 -0.0234375 5.394531 0 5.375 0 C 5.050781 0 4.796875 -0.00390625 4.609375 -0.015625 L 3.46875 -0.03125 L 2.375 -0.015625 C 2.1875 -0.00390625 1.921875 0 1.578125 0 Z M 1.578125 0 "/></g></g></g><g fill="#000000" fill-opacity="1"><g transform="translate(122.301219, 234.682573)"><g><path d="M 5.96875 -1.078125 C 5.976562 -1.097656 5.988281 -1.109375 6 -1.109375 C 6.03125 -1.109375 6.054688 -1.09375 6.078125 -1.0625 C 6.109375 -1.03125 6.109375 -1 6.078125 -0.96875 C 5.753906 -0.59375 5.46875 -0.316406 5.21875 -0.140625 C 4.976562 0.0351562 4.726562 0.125 4.46875 0.125 C 4.019531 0.125 3.796875 -0.132812 3.796875 -0.65625 C 3.796875 -0.800781 3.816406 -1 3.859375 -1.25 L 4.265625 -3.46875 C 4.316406 -3.726562 4.34375 -3.941406 4.34375 -4.109375 C 4.34375 -4.554688 4.191406 -4.78125 3.890625 -4.78125 C 3.628906 -4.78125 3.359375 -4.613281 3.078125 -4.28125 C 2.804688 -3.957031 2.546875 -3.472656 2.296875 -2.828125 C 2.054688 -2.179688 1.851562 -1.410156 1.6875 -0.515625 L 1.625 -0.171875 C 1.570312 0.015625 1.3125 0.109375 0.84375 0.109375 C 0.53125 0.109375 0.375 0.0703125 0.375 0 L 0.4375 -0.296875 C 0.53125 -0.734375 0.582031 -0.976562 0.59375 -1.03125 L 1.90625 -8.25 C 1.9375 -8.4375 1.953125 -8.585938 1.953125 -8.703125 C 1.953125 -8.972656 1.863281 -9.109375 1.6875 -9.109375 C 1.570312 -9.109375 1.375 -9.046875 1.09375 -8.921875 L 1.078125 -8.921875 C 1.035156 -8.921875 1.007812 -8.945312 1 -9 C 0.988281 -9.050781 1 -9.082031 1.03125 -9.09375 L 3.203125 -10.15625 L 3.234375 -10.15625 C 3.273438 -10.15625 3.3125 -10.140625 3.34375 -10.109375 C 3.375 -10.078125 3.382812 -10.050781 3.375 -10.03125 L 2.140625 -3.078125 C 2.460938 -3.867188 2.832031 -4.484375 3.25 -4.921875 C 3.675781 -5.367188 4.128906 -5.59375 4.609375 -5.59375 C 5.253906 -5.59375 5.578125 -5.203125 5.578125 -4.421875 C 5.578125 -4.242188 5.550781 -4.015625 5.5 -3.734375 L 5.046875 -1.25 C 5.015625 -1.101562 5 -0.988281 5 -0.90625 C 5 -0.695312 5.070312 -0.59375 5.21875 -0.59375 C 5.3125 -0.59375 5.414062 -0.632812 5.53125 -0.71875 C 5.65625 -0.800781 5.800781 -0.921875 5.96875 -1.078125 Z M 5.96875 -1.078125 "/></g></g></g><g fill="#000000" fill-opacity="1"><g transform="translate(132.867674, 234.682573)"><g><path d="M 3.78125 -5.59375 C 4.132812 -5.59375 4.410156 -5.53125 4.609375 -5.40625 C 4.804688 -5.28125 4.90625 -5.113281 4.90625 -4.90625 C 4.90625 -4.476562 4.59375 -4.078125 3.96875 -3.703125 C 3.34375 -3.335938 2.59375 -3.070312 1.71875 -2.90625 C 1.695312 -2.707031 1.6875 -2.507812 1.6875 -2.3125 C 1.6875 -1.75 1.800781 -1.296875 2.03125 -0.953125 C 2.257812 -0.617188 2.601562 -0.453125 3.0625 -0.453125 C 3.257812 -0.453125 3.472656 -0.484375 3.703125 -0.546875 C 3.929688 -0.617188 4.140625 -0.726562 4.328125 -0.875 L 4.34375 -0.875 C 4.363281 -0.875 4.382812 -0.859375 4.40625 -0.828125 C 4.4375 -0.804688 4.441406 -0.785156 4.421875 -0.765625 C 4.085938 -0.441406 3.734375 -0.203125 3.359375 -0.046875 C 2.984375 0.0976562 2.609375 0.171875 2.234375 0.171875 C 1.597656 0.171875 1.117188 -0.0234375 0.796875 -0.421875 C 0.472656 -0.816406 0.3125 -1.3125 0.3125 -1.90625 C 0.3125 -2.113281 0.332031 -2.34375 0.375 -2.59375 C 0.46875 -3.09375 0.675781 -3.570312 1 -4.03125 C 1.320312 -4.488281 1.722656 -4.863281 2.203125 -5.15625 C 2.691406 -5.445312 3.21875 -5.59375 3.78125 -5.59375 Z M 3.484375 -4.53125 C 3.492188 -4.570312 3.5 -4.628906 3.5 -4.703125 C 3.5 -4.859375 3.457031 -4.976562 3.375 -5.0625 C 3.300781 -5.15625 3.191406 -5.203125 3.046875 -5.203125 C 2.753906 -5.203125 2.492188 -5.007812 2.265625 -4.625 C 2.035156 -4.25 1.863281 -3.753906 1.75 -3.140625 C 2.820312 -3.421875 3.398438 -3.882812 3.484375 -4.53125 Z M 3.484375 -4.53125 "/></g></g></g><g fill="#000000" fill-opacity="1"><g transform="translate(142.062887, 234.682573)"><g/></g></g><g fill="#000000" fill-opacity="1"><g transform="translate(149.537069, 234.682573)"><g><path d="M 8.015625 -0.171875 C 8.054688 -0.171875 8.078125 -0.140625 8.078125 -0.078125 C 8.078125 -0.0234375 8.054688 0 8.015625 0 C 7.867188 0 7.640625 -0.0078125 7.328125 -0.03125 C 6.972656 -0.0507812 6.6875 -0.0625 6.46875 -0.0625 C 6.257812 -0.0625 5.988281 -0.0507812 5.65625 -0.03125 C 5.351562 -0.0078125 5.128906 0 4.984375 0 C 4.941406 0 4.921875 -0.0234375 4.921875 -0.078125 C 4.921875 -0.140625 4.941406 -0.171875 4.984375 -0.171875 C 5.265625 -0.171875 5.460938 -0.210938 5.578125 -0.296875 C 5.703125 -0.378906 5.765625 -0.523438 5.765625 -0.734375 C 5.765625 -0.878906 5.75 -1.023438 5.71875 -1.171875 L 5.3125 -3.203125 L 2.59375 -3.203125 L 1.8125 -1.8125 C 1.570312 -1.363281 1.453125 -1.019531 1.453125 -0.78125 C 1.453125 -0.570312 1.539062 -0.414062 1.71875 -0.3125 C 1.894531 -0.21875 2.164062 -0.171875 2.53125 -0.171875 C 2.570312 -0.171875 2.585938 -0.140625 2.578125 -0.078125 C 2.578125 -0.0234375 2.554688 0 2.515625 0 C 2.398438 0 2.164062 -0.0078125 1.8125 -0.03125 C 1.375 -0.0507812 1.039062 -0.0625 0.8125 -0.0625 C 0.613281 -0.0625 0.382812 -0.0507812 0.125 -0.03125 C -0.132812 -0.0078125 -0.332031 0 -0.46875 0 C -0.507812 0 -0.53125 -0.0234375 -0.53125 -0.078125 C -0.53125 -0.140625 -0.507812 -0.171875 -0.46875 -0.171875 C -0.207031 -0.171875 0.0976562 -0.316406 0.453125 -0.609375 C 0.804688 -0.910156 1.132812 -1.34375 1.4375 -1.90625 L 5.34375 -8.875 C 5.363281 -8.90625 5.398438 -8.921875 5.453125 -8.921875 C 5.484375 -8.921875 5.515625 -8.914062 5.546875 -8.90625 C 5.578125 -8.894531 5.59375 -8.878906 5.59375 -8.859375 L 7.125 -1.171875 C 7.175781 -0.867188 7.222656 -0.65625 7.265625 -0.53125 C 7.316406 -0.40625 7.394531 -0.3125 7.5 -0.25 C 7.613281 -0.195312 7.785156 -0.171875 8.015625 -0.171875 Z M 2.796875 -3.59375 L 5.21875 -3.59375 L 4.578125 -6.8125 Z M 2.796875 -3.59375 "/></g></g></g><g fill="#000000" fill-opacity="1"><g transform="translate(162.202347, 234.682573)"><g><path d="M 4.15625 -5.53125 C 4.394531 -5.53125 4.625 -5.441406 4.84375 -5.265625 C 5.070312 -5.085938 5.164062 -4.882812 5.125 -4.65625 C 5.101562 -4.519531 5.035156 -4.390625 4.921875 -4.265625 C 4.816406 -4.148438 4.679688 -4.09375 4.515625 -4.09375 C 4.335938 -4.09375 4.15625 -4.171875 3.96875 -4.328125 C 3.894531 -4.367188 3.828125 -4.410156 3.765625 -4.453125 C 3.703125 -4.492188 3.632812 -4.515625 3.5625 -4.515625 C 3.40625 -4.515625 3.207031 -4.265625 2.96875 -3.765625 C 2.738281 -3.273438 2.519531 -2.6875 2.3125 -2 C 2.101562 -1.3125 1.953125 -0.707031 1.859375 -0.1875 L 1.859375 -0.171875 C 1.835938 -0.0859375 1.757812 -0.0195312 1.625 0.03125 C 1.5 0.0820312 1.316406 0.109375 1.078125 0.109375 C 0.765625 0.109375 0.609375 0.0703125 0.609375 0 C 0.617188 -0.0625 0.648438 -0.195312 0.703125 -0.40625 C 0.753906 -0.625 0.800781 -0.832031 0.84375 -1.03125 L 1.40625 -4.15625 C 1.425781 -4.300781 1.4375 -4.398438 1.4375 -4.453125 C 1.4375 -4.710938 1.351562 -4.84375 1.1875 -4.84375 C 1 -4.84375 0.734375 -4.65625 0.390625 -4.28125 C 0.378906 -4.269531 0.363281 -4.265625 0.34375 -4.265625 C 0.3125 -4.265625 0.285156 -4.28125 0.265625 -4.3125 C 0.242188 -4.351562 0.25 -4.382812 0.28125 -4.40625 C 0.613281 -4.800781 0.910156 -5.085938 1.171875 -5.265625 C 1.441406 -5.441406 1.710938 -5.53125 1.984375 -5.53125 C 2.222656 -5.53125 2.390625 -5.46875 2.484375 -5.34375 C 2.585938 -5.21875 2.640625 -5.03125 2.640625 -4.78125 C 2.640625 -4.644531 2.628906 -4.492188 2.609375 -4.328125 L 2.328125 -2.78125 C 2.878906 -4.613281 3.488281 -5.53125 4.15625 -5.53125 Z M 4.15625 -5.53125 "/></g></g></g><g fill="#000000" fill-opacity="1"><g transform="translate(171.383575, 234.682573)"><g><path d="M 4.25 -5.40625 C 4.320312 -5.40625 4.359375 -5.363281 4.359375 -5.28125 C 4.359375 -5.207031 4.300781 -5.09375 4.1875 -4.9375 C 4.082031 -4.789062 3.984375 -4.71875 3.890625 -4.71875 C 3.859375 -4.71875 3.707031 -4.738281 3.4375 -4.78125 C 3.164062 -4.832031 2.851562 -4.867188 2.5 -4.890625 L 1.921875 -1.546875 C 1.898438 -1.398438 1.890625 -1.300781 1.890625 -1.25 C 1.890625 -1.019531 1.945312 -0.851562 2.0625 -0.75 C 2.175781 -0.65625 2.359375 -0.609375 2.609375 -0.609375 C 2.960938 -0.609375 3.351562 -0.78125 3.78125 -1.125 L 3.796875 -1.125 C 3.828125 -1.125 3.859375 -1.109375 3.890625 -1.078125 C 3.921875 -1.046875 3.921875 -1.019531 3.890625 -1 C 3.460938 -0.582031 3.082031 -0.28125 2.75 -0.09375 C 2.414062 0.0820312 2.085938 0.171875 1.765625 0.171875 C 1.003906 0.171875 0.625 -0.171875 0.625 -0.859375 C 0.625 -0.992188 0.640625 -1.144531 0.671875 -1.3125 L 1.21875 -4.28125 C 1.25 -4.4375 1.265625 -4.566406 1.265625 -4.671875 C 1.265625 -4.816406 1.222656 -4.910156 1.140625 -4.953125 C 1.066406 -5.003906 0.929688 -5.03125 0.734375 -5.03125 C 0.710938 -5.03125 0.703125 -5.0625 0.703125 -5.125 C 0.703125 -5.207031 0.710938 -5.25 0.734375 -5.25 C 1.484375 -5.25 2.078125 -5.660156 2.515625 -6.484375 C 2.535156 -6.515625 2.570312 -6.53125 2.625 -6.53125 C 2.664062 -6.53125 2.703125 -6.519531 2.734375 -6.5 C 2.773438 -6.476562 2.789062 -6.457031 2.78125 -6.4375 L 2.578125 -5.296875 C 2.835938 -5.304688 3.0625 -5.316406 3.25 -5.328125 C 3.4375 -5.335938 3.59375 -5.347656 3.71875 -5.359375 C 3.96875 -5.390625 4.144531 -5.40625 4.25 -5.40625 Z M 4.25 -5.40625 "/></g></g></g><g fill="#000000" fill-opacity="1"><g transform="translate(179.795234, 234.682573)"><g/></g></g><g fill="#000000" fill-opacity="1"><g transform="translate(187.269416, 234.682573)"><g><path d="M 2.21875 0.203125 C 1.59375 0.203125 1.117188 0.00390625 0.796875 -0.390625 C 0.484375 -0.796875 0.328125 -1.316406 0.328125 -1.953125 C 0.328125 -2.222656 0.347656 -2.472656 0.390625 -2.703125 C 0.492188 -3.265625 0.695312 -3.765625 1 -4.203125 C 1.300781 -4.640625 1.664062 -4.976562 2.09375 -5.21875 C 2.53125 -5.46875 2.992188 -5.59375 3.484375 -5.59375 C 4.109375 -5.59375 4.585938 -5.398438 4.921875 -5.015625 C 5.253906 -4.640625 5.421875 -4.132812 5.421875 -3.5 C 5.421875 -3.25 5.390625 -2.984375 5.328125 -2.703125 C 5.210938 -2.085938 4.992188 -1.5625 4.671875 -1.125 C 4.347656 -0.6875 3.96875 -0.351562 3.53125 -0.125 C 3.101562 0.09375 2.664062 0.203125 2.21875 0.203125 Z M 2.6875 -0.15625 C 2.988281 -0.15625 3.25 -0.328125 3.46875 -0.671875 C 3.6875 -1.015625 3.847656 -1.488281 3.953125 -2.09375 C 4.015625 -2.445312 4.046875 -2.8125 4.046875 -3.1875 C 4.046875 -3.800781 3.953125 -4.296875 3.765625 -4.671875 C 3.585938 -5.054688 3.34375 -5.25 3.03125 -5.25 C 2.75 -5.25 2.5 -5.082031 2.28125 -4.75 C 2.0625 -4.425781 1.894531 -3.941406 1.78125 -3.296875 C 1.71875 -2.941406 1.6875 -2.578125 1.6875 -2.203125 C 1.6875 -1.585938 1.773438 -1.09375 1.953125 -0.71875 C 2.128906 -0.34375 2.375 -0.15625 2.6875 -0.15625 Z M 2.6875 -0.15625 "/></g></g></g><g fill="#000000" fill-opacity="1"><g transform="translate(197.178236, 234.682573)"><g><path d="M 4.53125 -10.15625 C 4.914062 -10.15625 5.21875 -10.085938 5.4375 -9.953125 C 5.664062 -9.828125 5.78125 -9.660156 5.78125 -9.453125 C 5.78125 -9.242188 5.710938 -9.078125 5.578125 -8.953125 C 5.453125 -8.835938 5.289062 -8.78125 5.09375 -8.78125 C 4.832031 -8.78125 4.65625 -8.835938 4.5625 -8.953125 C 4.476562 -9.078125 4.421875 -9.242188 4.390625 -9.453125 C 4.367188 -9.585938 4.335938 -9.691406 4.296875 -9.765625 C 4.253906 -9.835938 4.1875 -9.875 4.09375 -9.875 C 3.789062 -9.875 3.535156 -9.570312 3.328125 -8.96875 C 3.117188 -8.363281 2.921875 -7.421875 2.734375 -6.140625 L 2.609375 -5.3125 C 2.972656 -5.332031 3.238281 -5.351562 3.40625 -5.375 L 3.9375 -5.40625 C 3.96875 -5.40625 3.992188 -5.382812 4.015625 -5.34375 C 4.035156 -5.3125 4.039062 -5.273438 4.03125 -5.234375 C 4 -5.140625 3.9375 -5.035156 3.84375 -4.921875 C 3.75 -4.804688 3.660156 -4.75 3.578125 -4.75 C 3.566406 -4.75 3.457031 -4.765625 3.25 -4.796875 C 3.039062 -4.828125 2.804688 -4.859375 2.546875 -4.890625 L 1.78125 0.296875 C 1.644531 1.203125 1.484375 1.910156 1.296875 2.421875 C 1.109375 2.929688 0.875 3.296875 0.59375 3.515625 C 0.3125 3.734375 -0.046875 3.84375 -0.484375 3.84375 C -0.867188 3.84375 -1.171875 3.773438 -1.390625 3.640625 C -1.617188 3.503906 -1.734375 3.335938 -1.734375 3.140625 C -1.734375 2.929688 -1.671875 2.769531 -1.546875 2.65625 C -1.421875 2.539062 -1.269531 2.484375 -1.09375 2.484375 C -0.863281 2.484375 -0.707031 2.539062 -0.625 2.65625 C -0.550781 2.769531 -0.5 2.9375 -0.46875 3.15625 C -0.4375 3.300781 -0.40625 3.40625 -0.375 3.46875 C -0.34375 3.53125 -0.28125 3.5625 -0.1875 3.5625 C -0.09375 3.5625 -0.015625 3.488281 0.046875 3.34375 C 0.109375 3.207031 0.171875 2.953125 0.234375 2.578125 C 0.304688 2.203125 0.410156 1.5625 0.546875 0.65625 L 1.265625 -4.28125 C 1.273438 -4.382812 1.28125 -4.503906 1.28125 -4.640625 C 1.28125 -4.816406 1.234375 -4.925781 1.140625 -4.96875 C 1.054688 -5.007812 0.867188 -5.03125 0.578125 -5.03125 C 0.546875 -5.03125 0.53125 -5.0625 0.53125 -5.125 C 0.53125 -5.207031 0.546875 -5.25 0.578125 -5.25 C 0.878906 -5.25 1.09375 -5.289062 1.21875 -5.375 C 1.351562 -5.457031 1.441406 -5.617188 1.484375 -5.859375 C 1.671875 -7.003906 1.882812 -7.878906 2.125 -8.484375 C 2.375 -9.097656 2.6875 -9.53125 3.0625 -9.78125 C 3.4375 -10.03125 3.925781 -10.15625 4.53125 -10.15625 Z M 4.53125 -10.15625 "/></g></g></g><g fill="#000000" fill-opacity="1"><g transform="translate(205.128148, 234.682573)"><g/></g></g><g fill="#000000" fill-opacity="1"><g transform="translate(212.60233, 234.682573)"><g><path d="M 0.203125 0 C 0.191406 0 0.1875 -0.0234375 0.1875 -0.078125 C 0.1875 -0.140625 0.191406 -0.171875 0.203125 -0.171875 C 0.472656 -0.171875 0.671875 -0.191406 0.796875 -0.234375 C 0.929688 -0.285156 1.03125 -0.378906 1.09375 -0.515625 C 1.15625 -0.648438 1.210938 -0.859375 1.265625 -1.140625 L 2.40625 -7.609375 C 2.445312 -7.859375 2.46875 -8.015625 2.46875 -8.078125 C 2.46875 -8.285156 2.410156 -8.421875 2.296875 -8.484375 C 2.191406 -8.546875 2 -8.578125 1.71875 -8.578125 C 1.695312 -8.578125 1.6875 -8.601562 1.6875 -8.65625 C 1.6875 -8.71875 1.695312 -8.75 1.71875 -8.75 L 2.34375 -8.734375 C 2.707031 -8.710938 3.007812 -8.703125 3.25 -8.703125 C 3.4375 -8.703125 3.660156 -8.71875 3.921875 -8.75 C 4.566406 -8.78125 4.898438 -8.796875 4.921875 -8.796875 C 5.722656 -8.796875 6.363281 -8.628906 6.84375 -8.296875 C 7.332031 -7.960938 7.578125 -7.476562 7.578125 -6.84375 C 7.578125 -6.695312 7.5625 -6.53125 7.53125 -6.34375 C 7.414062 -5.75 7.171875 -5.25 6.796875 -4.84375 C 6.421875 -4.4375 5.988281 -4.140625 5.5 -3.953125 C 5.007812 -3.765625 4.535156 -3.671875 4.078125 -3.671875 C 3.835938 -3.671875 3.644531 -3.691406 3.5 -3.734375 C 3.488281 -3.734375 3.484375 -3.75 3.484375 -3.78125 C 3.484375 -3.820312 3.492188 -3.875 3.515625 -3.9375 C 3.535156 -4 3.554688 -4.023438 3.578125 -4.015625 C 3.691406 -3.984375 3.828125 -3.96875 3.984375 -3.96875 C 4.472656 -3.96875 4.90625 -4.140625 5.28125 -4.484375 C 5.65625 -4.835938 5.890625 -5.363281 5.984375 -6.0625 C 6.023438 -6.34375 6.046875 -6.539062 6.046875 -6.65625 C 6.046875 -7.226562 5.910156 -7.675781 5.640625 -8 C 5.378906 -8.332031 5.050781 -8.5 4.65625 -8.5 C 4.363281 -8.5 4.160156 -8.4375 4.046875 -8.3125 C 3.929688 -8.195312 3.835938 -7.957031 3.765625 -7.59375 L 2.625 -1.140625 C 2.59375 -0.890625 2.578125 -0.734375 2.578125 -0.671875 C 2.578125 -0.460938 2.628906 -0.328125 2.734375 -0.265625 C 2.835938 -0.203125 3.03125 -0.171875 3.3125 -0.171875 C 3.34375 -0.171875 3.359375 -0.140625 3.359375 -0.078125 C 3.359375 -0.0234375 3.34375 0 3.3125 0 C 3.039062 0 2.828125 -0.00390625 2.671875 -0.015625 L 1.734375 -0.03125 L 0.84375 -0.015625 C 0.6875 -0.00390625 0.472656 0 0.203125 0 Z M 0.203125 0 "/></g></g></g><g fill="#000000" fill-opacity="1"><g transform="translate(224.246178, 234.682573)"><g><path d="M 3.78125 -5.59375 C 4.132812 -5.59375 4.410156 -5.53125 4.609375 -5.40625 C 4.804688 -5.28125 4.90625 -5.113281 4.90625 -4.90625 C 4.90625 -4.476562 4.59375 -4.078125 3.96875 -3.703125 C 3.34375 -3.335938 2.59375 -3.070312 1.71875 -2.90625 C 1.695312 -2.707031 1.6875 -2.507812 1.6875 -2.3125 C 1.6875 -1.75 1.800781 -1.296875 2.03125 -0.953125 C 2.257812 -0.617188 2.601562 -0.453125 3.0625 -0.453125 C 3.257812 -0.453125 3.472656 -0.484375 3.703125 -0.546875 C 3.929688 -0.617188 4.140625 -0.726562 4.328125 -0.875 L 4.34375 -0.875 C 4.363281 -0.875 4.382812 -0.859375 4.40625 -0.828125 C 4.4375 -0.804688 4.441406 -0.785156 4.421875 -0.765625 C 4.085938 -0.441406 3.734375 -0.203125 3.359375 -0.046875 C 2.984375 0.0976562 2.609375 0.171875 2.234375 0.171875 C 1.597656 0.171875 1.117188 -0.0234375 0.796875 -0.421875 C 0.472656 -0.816406 0.3125 -1.3125 0.3125 -1.90625 C 0.3125 -2.113281 0.332031 -2.34375 0.375 -2.59375 C 0.46875 -3.09375 0.675781 -3.570312 1 -4.03125 C 1.320312 -4.488281 1.722656 -4.863281 2.203125 -5.15625 C 2.691406 -5.445312 3.21875 -5.59375 3.78125 -5.59375 Z M 3.484375 -4.53125 C 3.492188 -4.570312 3.5 -4.628906 3.5 -4.703125 C 3.5 -4.859375 3.457031 -4.976562 3.375 -5.0625 C 3.300781 -5.15625 3.191406 -5.203125 3.046875 -5.203125 C 2.753906 -5.203125 2.492188 -5.007812 2.265625 -4.625 C 2.035156 -4.25 1.863281 -3.753906 1.75 -3.140625 C 2.820312 -3.421875 3.398438 -3.882812 3.484375 -4.53125 Z M 3.484375 -4.53125 "/></g></g></g><g fill="#000000" fill-opacity="1"><g transform="translate(233.44139, 234.682573)"><g><path d="M 4.15625 -5.53125 C 4.394531 -5.53125 4.625 -5.441406 4.84375 -5.265625 C 5.070312 -5.085938 5.164062 -4.882812 5.125 -4.65625 C 5.101562 -4.519531 5.035156 -4.390625 4.921875 -4.265625 C 4.816406 -4.148438 4.679688 -4.09375 4.515625 -4.09375 C 4.335938 -4.09375 4.15625 -4.171875 3.96875 -4.328125 C 3.894531 -4.367188 3.828125 -4.410156 3.765625 -4.453125 C 3.703125 -4.492188 3.632812 -4.515625 3.5625 -4.515625 C 3.40625 -4.515625 3.207031 -4.265625 2.96875 -3.765625 C 2.738281 -3.273438 2.519531 -2.6875 2.3125 -2 C 2.101562 -1.3125 1.953125 -0.707031 1.859375 -0.1875 L 1.859375 -0.171875 C 1.835938 -0.0859375 1.757812 -0.0195312 1.625 0.03125 C 1.5 0.0820312 1.316406 0.109375 1.078125 0.109375 C 0.765625 0.109375 0.609375 0.0703125 0.609375 0 C 0.617188 -0.0625 0.648438 -0.195312 0.703125 -0.40625 C 0.753906 -0.625 0.800781 -0.832031 0.84375 -1.03125 L 1.40625 -4.15625 C 1.425781 -4.300781 1.4375 -4.398438 1.4375 -4.453125 C 1.4375 -4.710938 1.351562 -4.84375 1.1875 -4.84375 C 1 -4.84375 0.734375 -4.65625 0.390625 -4.28125 C 0.378906 -4.269531 0.363281 -4.265625 0.34375 -4.265625 C 0.3125 -4.265625 0.285156 -4.28125 0.265625 -4.3125 C 0.242188 -4.351562 0.25 -4.382812 0.28125 -4.40625 C 0.613281 -4.800781 0.910156 -5.085938 1.171875 -5.265625 C 1.441406 -5.441406 1.710938 -5.53125 1.984375 -5.53125 C 2.222656 -5.53125 2.390625 -5.46875 2.484375 -5.34375 C 2.585938 -5.21875 2.640625 -5.03125 2.640625 -4.78125 C 2.640625 -4.644531 2.628906 -4.492188 2.609375 -4.328125 L 2.328125 -2.78125 C 2.878906 -4.613281 3.488281 -5.53125 4.15625 -5.53125 Z M 4.15625 -5.53125 "/></g></g></g><g fill="#000000" fill-opacity="1"><g transform="translate(242.622618, 234.682573)"><g><path d="M 4.53125 -10.15625 C 4.914062 -10.15625 5.21875 -10.085938 5.4375 -9.953125 C 5.664062 -9.828125 5.78125 -9.660156 5.78125 -9.453125 C 5.78125 -9.242188 5.710938 -9.078125 5.578125 -8.953125 C 5.453125 -8.835938 5.289062 -8.78125 5.09375 -8.78125 C 4.832031 -8.78125 4.65625 -8.835938 4.5625 -8.953125 C 4.476562 -9.078125 4.421875 -9.242188 4.390625 -9.453125 C 4.367188 -9.585938 4.335938 -9.691406 4.296875 -9.765625 C 4.253906 -9.835938 4.1875 -9.875 4.09375 -9.875 C 3.789062 -9.875 3.535156 -9.570312 3.328125 -8.96875 C 3.117188 -8.363281 2.921875 -7.421875 2.734375 -6.140625 L 2.609375 -5.3125 C 2.972656 -5.332031 3.238281 -5.351562 3.40625 -5.375 L 3.9375 -5.40625 C 3.96875 -5.40625 3.992188 -5.382812 4.015625 -5.34375 C 4.035156 -5.3125 4.039062 -5.273438 4.03125 -5.234375 C 4 -5.140625 3.9375 -5.035156 3.84375 -4.921875 C 3.75 -4.804688 3.660156 -4.75 3.578125 -4.75 C 3.566406 -4.75 3.457031 -4.765625 3.25 -4.796875 C 3.039062 -4.828125 2.804688 -4.859375 2.546875 -4.890625 L 1.78125 0.296875 C 1.644531 1.203125 1.484375 1.910156 1.296875 2.421875 C 1.109375 2.929688 0.875 3.296875 0.59375 3.515625 C 0.3125 3.734375 -0.046875 3.84375 -0.484375 3.84375 C -0.867188 3.84375 -1.171875 3.773438 -1.390625 3.640625 C -1.617188 3.503906 -1.734375 3.335938 -1.734375 3.140625 C -1.734375 2.929688 -1.671875 2.769531 -1.546875 2.65625 C -1.421875 2.539062 -1.269531 2.484375 -1.09375 2.484375 C -0.863281 2.484375 -0.707031 2.539062 -0.625 2.65625 C -0.550781 2.769531 -0.5 2.9375 -0.46875 3.15625 C -0.4375 3.300781 -0.40625 3.40625 -0.375 3.46875 C -0.34375 3.53125 -0.28125 3.5625 -0.1875 3.5625 C -0.09375 3.5625 -0.015625 3.488281 0.046875 3.34375 C 0.109375 3.207031 0.171875 2.953125 0.234375 2.578125 C 0.304688 2.203125 0.410156 1.5625 0.546875 0.65625 L 1.265625 -4.28125 C 1.273438 -4.382812 1.28125 -4.503906 1.28125 -4.640625 C 1.28125 -4.816406 1.234375 -4.925781 1.140625 -4.96875 C 1.054688 -5.007812 0.867188 -5.03125 0.578125 -5.03125 C 0.546875 -5.03125 0.53125 -5.0625 0.53125 -5.125 C 0.53125 -5.207031 0.546875 -5.25 0.578125 -5.25 C 0.878906 -5.25 1.09375 -5.289062 1.21875 -5.375 C 1.351562 -5.457031 1.441406 -5.617188 1.484375 -5.859375 C 1.671875 -7.003906 1.882812 -7.878906 2.125 -8.484375 C 2.375 -9.097656 2.6875 -9.53125 3.0625 -9.78125 C 3.4375 -10.03125 3.925781 -10.15625 4.53125 -10.15625 Z M 4.53125 -10.15625 "/></g></g></g><g fill="#000000" fill-opacity="1"><g transform="translate(250.572531, 234.682573)"><g><path d="M 6.25 -1.125 C 6.257812 -1.132812 6.269531 -1.140625 6.28125 -1.140625 C 6.3125 -1.140625 6.335938 -1.117188 6.359375 -1.078125 C 6.378906 -1.046875 6.378906 -1.019531 6.359375 -1 C 6.023438 -0.601562 5.722656 -0.316406 5.453125 -0.140625 C 5.179688 0.0351562 4.910156 0.125 4.640625 0.125 C 4.203125 0.125 3.984375 -0.117188 3.984375 -0.609375 C 3.984375 -0.753906 4 -0.910156 4.03125 -1.078125 L 4.25 -2.359375 C 3.925781 -1.546875 3.550781 -0.914062 3.125 -0.46875 C 2.695312 -0.03125 2.25 0.1875 1.78125 0.1875 C 1.132812 0.1875 0.8125 -0.195312 0.8125 -0.96875 C 0.8125 -1.207031 0.832031 -1.441406 0.875 -1.671875 L 1.375 -4.15625 C 1.394531 -4.300781 1.40625 -4.414062 1.40625 -4.5 C 1.40625 -4.707031 1.332031 -4.8125 1.1875 -4.8125 C 1.09375 -4.8125 0.992188 -4.769531 0.890625 -4.6875 C 0.785156 -4.613281 0.644531 -4.492188 0.46875 -4.328125 C 0.445312 -4.304688 0.425781 -4.296875 0.40625 -4.296875 C 0.375 -4.296875 0.347656 -4.3125 0.328125 -4.34375 C 0.316406 -4.375 0.320312 -4.40625 0.34375 -4.4375 C 0.664062 -4.8125 0.945312 -5.085938 1.1875 -5.265625 C 1.425781 -5.441406 1.675781 -5.53125 1.9375 -5.53125 C 2.394531 -5.53125 2.625 -5.265625 2.625 -4.734375 C 2.625 -4.597656 2.597656 -4.40625 2.546875 -4.15625 L 2.109375 -1.9375 C 2.066406 -1.726562 2.046875 -1.515625 2.046875 -1.296875 C 2.046875 -0.835938 2.191406 -0.609375 2.484375 -0.609375 C 2.753906 -0.609375 3.023438 -0.78125 3.296875 -1.125 C 3.578125 -1.46875 3.84375 -1.960938 4.09375 -2.609375 C 4.34375 -3.265625 4.550781 -4.050781 4.71875 -4.96875 L 4.765625 -5.234375 C 4.804688 -5.421875 5.066406 -5.515625 5.546875 -5.515625 C 5.703125 -5.515625 5.816406 -5.503906 5.890625 -5.484375 C 5.960938 -5.460938 6 -5.4375 6 -5.40625 L 5.953125 -5.109375 C 5.859375 -4.671875 5.804688 -4.425781 5.796875 -4.375 L 5.21875 -1.25 C 5.195312 -1.164062 5.1875 -1.0625 5.1875 -0.9375 C 5.1875 -0.6875 5.269531 -0.5625 5.4375 -0.5625 C 5.625 -0.5625 5.894531 -0.75 6.25 -1.125 Z M 6.25 -1.125 "/></g></g></g><g fill="#000000" fill-opacity="1"><g transform="translate(261.432813, 234.682573)"><g><path d="M 9.1875 -1.078125 C 9.207031 -1.097656 9.222656 -1.109375 9.234375 -1.109375 C 9.265625 -1.109375 9.289062 -1.09375 9.3125 -1.0625 C 9.332031 -1.03125 9.328125 -1 9.296875 -0.96875 C 8.972656 -0.59375 8.691406 -0.316406 8.453125 -0.140625 C 8.210938 0.0351562 7.960938 0.125 7.703125 0.125 C 7.253906 0.125 7.03125 -0.140625 7.03125 -0.671875 C 7.03125 -0.859375 7.046875 -1.050781 7.078125 -1.25 L 7.5 -3.46875 C 7.550781 -3.75 7.578125 -3.960938 7.578125 -4.109375 C 7.578125 -4.554688 7.441406 -4.78125 7.171875 -4.78125 C 6.941406 -4.78125 6.703125 -4.628906 6.453125 -4.328125 C 6.203125 -4.023438 5.957031 -3.570312 5.71875 -2.96875 C 5.488281 -2.363281 5.289062 -1.632812 5.125 -0.78125 L 5.015625 -0.171875 C 4.992188 -0.0859375 4.914062 -0.0195312 4.78125 0.03125 C 4.65625 0.0820312 4.472656 0.109375 4.234375 0.109375 C 3.921875 0.109375 3.765625 0.0703125 3.765625 0 L 3.828125 -0.296875 C 3.921875 -0.734375 3.96875 -0.976562 3.96875 -1.03125 L 4.4375 -3.5 C 4.488281 -3.757812 4.515625 -3.960938 4.515625 -4.109375 C 4.515625 -4.335938 4.472656 -4.503906 4.390625 -4.609375 C 4.304688 -4.722656 4.195312 -4.78125 4.0625 -4.78125 C 3.820312 -4.78125 3.570312 -4.613281 3.3125 -4.28125 C 3.050781 -3.957031 2.800781 -3.476562 2.5625 -2.84375 C 2.332031 -2.21875 2.140625 -1.476562 1.984375 -0.625 L 1.90625 -0.171875 C 1.851562 0.015625 1.59375 0.109375 1.125 0.109375 C 0.8125 0.109375 0.65625 0.0703125 0.65625 0 L 0.71875 -0.296875 C 0.8125 -0.734375 0.863281 -0.976562 0.875 -1.03125 L 1.4375 -4.15625 C 1.457031 -4.238281 1.46875 -4.34375 1.46875 -4.46875 C 1.46875 -4.71875 1.390625 -4.84375 1.234375 -4.84375 C 1.035156 -4.84375 0.765625 -4.65625 0.421875 -4.28125 C 0.410156 -4.269531 0.394531 -4.265625 0.375 -4.265625 C 0.351562 -4.265625 0.332031 -4.28125 0.3125 -4.3125 C 0.289062 -4.351562 0.289062 -4.382812 0.3125 -4.40625 C 0.644531 -4.800781 0.941406 -5.085938 1.203125 -5.265625 C 1.472656 -5.441406 1.742188 -5.53125 2.015625 -5.53125 C 2.453125 -5.53125 2.671875 -5.28125 2.671875 -4.78125 C 2.671875 -4.644531 2.65625 -4.492188 2.625 -4.328125 L 2.421875 -3.15625 C 2.734375 -3.925781 3.09375 -4.523438 3.5 -4.953125 C 3.90625 -5.378906 4.335938 -5.59375 4.796875 -5.59375 C 5.097656 -5.59375 5.328125 -5.492188 5.484375 -5.296875 C 5.640625 -5.109375 5.71875 -4.820312 5.71875 -4.4375 C 5.71875 -4.269531 5.695312 -4.046875 5.65625 -3.765625 L 5.5625 -3.1875 C 5.863281 -3.957031 6.21875 -4.550781 6.625 -4.96875 C 7.03125 -5.382812 7.453125 -5.59375 7.890625 -5.59375 C 8.492188 -5.59375 8.796875 -5.210938 8.796875 -4.453125 C 8.796875 -4.203125 8.769531 -3.960938 8.71875 -3.734375 L 8.28125 -1.25 C 8.25 -1.101562 8.234375 -0.988281 8.234375 -0.90625 C 8.234375 -0.695312 8.304688 -0.59375 8.453125 -0.59375 C 8.546875 -0.59375 8.644531 -0.628906 8.75 -0.703125 C 8.863281 -0.785156 9.007812 -0.910156 9.1875 -1.078125 Z M 9.1875 -1.078125 "/></g></g></g><g fill="#000000" fill-opacity="1"><g transform="translate(275.217473, 234.682573)"><g><path d="M 3.78125 -5.59375 C 4.132812 -5.59375 4.410156 -5.53125 4.609375 -5.40625 C 4.804688 -5.28125 4.90625 -5.113281 4.90625 -4.90625 C 4.90625 -4.476562 4.59375 -4.078125 3.96875 -3.703125 C 3.34375 -3.335938 2.59375 -3.070312 1.71875 -2.90625 C 1.695312 -2.707031 1.6875 -2.507812 1.6875 -2.3125 C 1.6875 -1.75 1.800781 -1.296875 2.03125 -0.953125 C 2.257812 -0.617188 2.601562 -0.453125 3.0625 -0.453125 C 3.257812 -0.453125 3.472656 -0.484375 3.703125 -0.546875 C 3.929688 -0.617188 4.140625 -0.726562 4.328125 -0.875 L 4.34375 -0.875 C 4.363281 -0.875 4.382812 -0.859375 4.40625 -0.828125 C 4.4375 -0.804688 4.441406 -0.785156 4.421875 -0.765625 C 4.085938 -0.441406 3.734375 -0.203125 3.359375 -0.046875 C 2.984375 0.0976562 2.609375 0.171875 2.234375 0.171875 C 1.597656 0.171875 1.117188 -0.0234375 0.796875 -0.421875 C 0.472656 -0.816406 0.3125 -1.3125 0.3125 -1.90625 C 0.3125 -2.113281 0.332031 -2.34375 0.375 -2.59375 C 0.46875 -3.09375 0.675781 -3.570312 1 -4.03125 C 1.320312 -4.488281 1.722656 -4.863281 2.203125 -5.15625 C 2.691406 -5.445312 3.21875 -5.59375 3.78125 -5.59375 Z M 3.484375 -4.53125 C 3.492188 -4.570312 3.5 -4.628906 3.5 -4.703125 C 3.5 -4.859375 3.457031 -4.976562 3.375 -5.0625 C 3.300781 -5.15625 3.191406 -5.203125 3.046875 -5.203125 C 2.753906 -5.203125 2.492188 -5.007812 2.265625 -4.625 C 2.035156 -4.25 1.863281 -3.753906 1.75 -3.140625 C 2.820312 -3.421875 3.398438 -3.882812 3.484375 -4.53125 Z M 3.484375 -4.53125 "/></g></g></g></svg>